<svg width="21" height="21" viewBox="0 0 21 21" fill="none" xmlns="http://www.w3.org/2000/svg">
<path d="M10.8189 0.617676C8.84104 0.617676 6.90764 1.20417 5.26315 2.30298C3.61866 3.40179 2.33693 4.96358 1.58006 6.79084C0.82318 8.6181 0.625147 10.6288 1.011 12.5686C1.39685 14.5084 2.34926 16.2902 3.74778 17.6887C5.14631 19.0873 6.92814 20.0397 8.86795 20.4255C10.8078 20.8114 12.8184 20.6133 14.6457 19.8565C16.4729 19.0996 18.0347 17.8179 19.1335 16.1734C20.2324 14.5289 20.8189 12.5955 20.8189 10.6177C20.8189 9.30446 20.5602 8.0041 20.0576 6.79084C19.5551 5.57759 18.8185 4.47519 17.8899 3.54661C16.9613 2.61802 15.8589 1.88143 14.6457 1.37888C13.4324 0.876333 12.1321 0.617676 10.8189 0.617676ZM10.8189 18.6177C9.2366 18.6177 7.68988 18.1485 6.37429 17.2694C5.0587 16.3904 4.03332 15.141 3.42782 13.6791C2.82232 12.2173 2.66389 10.6088 2.97257 9.05695C3.28125 7.50511 4.04318 6.07964 5.162 4.96082C6.28082 3.842 7.70628 3.08008 9.25813 2.77139C10.81 2.46271 12.4185 2.62114 13.8803 3.22664C15.3421 3.83214 16.5916 4.85752 17.4706 6.17311C18.3497 7.48871 18.8189 9.03543 18.8189 10.6177C18.8189 12.7394 17.976 14.7742 16.4757 16.2745C14.9754 17.7748 12.9406 18.6177 10.8189 18.6177Z" fill="#181725"/>
<path d="M10.8188 15.6177C11.3711 15.6177 11.8188 15.17 11.8188 14.6177C11.8188 14.0654 11.3711 13.6177 10.8188 13.6177C10.2666 13.6177 9.81885 14.0654 9.81885 14.6177C9.81885 15.17 10.2666 15.6177 10.8188 15.6177Z" fill="#181725"/>
<path d="M10.8188 5.61768C10.5536 5.61768 10.2993 5.72303 10.1117 5.91057C9.9242 6.09811 9.81885 6.35246 9.81885 6.61768V11.6177C9.81885 11.8829 9.9242 12.1372 10.1117 12.3248C10.2993 12.5123 10.5536 12.6177 10.8188 12.6177C11.0841 12.6177 11.3384 12.5123 11.526 12.3248C11.7135 12.1372 11.8188 11.8829 11.8188 11.6177V6.61768C11.8188 6.35246 11.7135 6.09811 11.526 5.91057C11.3384 5.72303 11.0841 5.61768 10.8188 5.61768Z" fill="#181725"/>
</svg>
