<svg width="22" height="20" viewBox="0 0 22 20" fill="none" xmlns="http://www.w3.org/2000/svg">
<path d="M3.84722 20H18.1629C20.6029 20 22 18.5918 22 16.1429V3.86735C22 1.41837 20.6029 0 18.1629 0H3.84722C1.40727 0 0 1.40816 0 3.86735V16.1429C0 18.5918 1.40727 20 3.84722 20ZM3.12466 17.8703C2.45646 17.8703 2.12236 17.5846 2.12236 16.8601V5.84394C2.12236 5.11945 2.45646 4.83373 3.12466 4.83373H18.8855C19.5435 4.83373 19.8776 5.11945 19.8776 5.84394V16.8601C19.8776 17.5846 19.5435 17.8703 18.8855 17.8703H3.12466ZM9.1422 9.07143H9.73953C10.1243 9.07143 10.2559 8.93878 10.2559 8.56122V7.95918C10.2559 7.58163 10.1243 7.44898 9.73953 7.44898H9.1422C8.7676 7.44898 8.62586 7.58163 8.62586 7.95918V8.56122C8.62586 8.93878 8.7676 9.07143 9.1422 9.07143ZM12.2605 9.07143H12.8578C13.2425 9.07143 13.3741 8.93878 13.3741 8.56122V7.95918C13.3741 7.58163 13.2425 7.44898 12.8578 7.44898H12.2605C11.8859 7.44898 11.7441 7.58163 11.7441 7.95918V8.56122C11.7441 8.93878 11.8859 9.07143 12.2605 9.07143ZM15.3787 9.07143H15.9761C16.3608 9.07143 16.4924 8.93878 16.4924 8.56122V7.95918C16.4924 7.58163 16.3608 7.44898 15.9761 7.44898H15.3787C15.0041 7.44898 14.8624 7.58163 14.8624 7.95918V8.56122C14.8624 8.93878 15.0041 9.07143 15.3787 9.07143ZM6.02393 12.1633H6.62126C6.99586 12.1633 7.1376 12.0306 7.1376 11.6531V11.051C7.1376 10.6735 6.99586 10.5408 6.62126 10.5408H6.02393C5.64933 10.5408 5.50759 10.6735 5.50759 11.051V11.6531C5.50759 12.0306 5.64933 12.1633 6.02393 12.1633ZM9.1422 12.1633H9.73953C10.1243 12.1633 10.2559 12.0306 10.2559 11.6531V11.051C10.2559 10.6735 10.1243 10.5408 9.73953 10.5408H9.1422C8.7676 10.5408 8.62586 10.6735 8.62586 11.051V11.6531C8.62586 12.0306 8.7676 12.1633 9.1422 12.1633ZM12.2605 12.1633H12.8578C13.2425 12.1633 13.3741 12.0306 13.3741 11.6531V11.051C13.3741 10.6735 13.2425 10.5408 12.8578 10.5408H12.2605C11.8859 10.5408 11.7441 10.6735 11.7441 11.051V11.6531C11.7441 12.0306 11.8859 12.1633 12.2605 12.1633ZM15.3787 12.1633H15.9761C16.3608 12.1633 16.4924 12.0306 16.4924 11.6531V11.051C16.4924 10.6735 16.3608 10.5408 15.9761 10.5408H15.3787C15.0041 10.5408 14.8624 10.6735 14.8624 11.051V11.6531C14.8624 12.0306 15.0041 12.1633 15.3787 12.1633ZM6.02393 15.2551H6.62126C6.99586 15.2551 7.1376 15.1224 7.1376 14.7449V14.1429C7.1376 13.7653 6.99586 13.6327 6.62126 13.6327H6.02393C5.64933 13.6327 5.50759 13.7653 5.50759 14.1429V14.7449C5.50759 15.1224 5.64933 15.2551 6.02393 15.2551ZM9.1422 15.2551H9.73953C10.1243 15.2551 10.2559 15.1224 10.2559 14.7449V14.1429C10.2559 13.7653 10.1243 13.6327 9.73953 13.6327H9.1422C8.7676 13.6327 8.62586 13.7653 8.62586 14.1429V14.7449C8.62586 15.1224 8.7676 15.2551 9.1422 15.2551ZM12.2605 15.2551H12.8578C13.2425 15.2551 13.3741 15.1224 13.3741 14.7449V14.1429C13.3741 13.7653 13.2425 13.6327 12.8578 13.6327H12.2605C11.8859 13.6327 11.7441 13.7653 11.7441 14.1429V14.7449C11.7441 15.1224 11.8859 15.2551 12.2605 15.2551Z" fill="url(#paint0_linear)"/>
<defs>
<linearGradient id="paint0_linear" x1="7.36267" y1="11.2042" x2="12.8763" y2="11.6618" gradientUnits="userSpaceOnUse">
<stop stop-color="#2B3755"/>
<stop offset="1" stop-color="#1C243C"/>
</linearGradient>
</defs>
</svg>
