<svg width="21" height="21" viewBox="0 0 21 21" fill="none" xmlns="http://www.w3.org/2000/svg">
<path d="M10.8189 0.395996C8.84104 0.395996 6.90764 0.982486 5.26315 2.0813C3.61866 3.18011 2.33693 4.7419 1.58006 6.56916C0.82318 8.39642 0.625147 10.4071 1.011 12.3469C1.39685 14.2867 2.34926 16.0685 3.74778 17.4671C5.14631 18.8656 6.92814 19.818 8.86795 20.2038C10.8078 20.5897 12.8184 20.3917 14.6457 19.6348C16.4729 18.8779 18.0347 17.5962 19.1335 15.9517C20.2324 14.3072 20.8189 12.3738 20.8189 10.396C20.8189 9.08278 20.5602 7.78242 20.0576 6.56916C19.5551 5.35591 18.8185 4.25351 17.8899 3.32493C16.9613 2.39634 15.8589 1.65975 14.6457 1.1572C13.4324 0.654654 12.1321 0.395996 10.8189 0.395996ZM10.8189 18.396C9.2366 18.396 7.68988 17.9268 6.37429 17.0478C5.0587 16.1687 4.03332 14.9193 3.42782 13.4575C2.82232 11.9957 2.66389 10.3871 2.97257 8.83527C3.28125 7.28343 4.04318 5.85796 5.162 4.73914C6.28082 3.62032 7.70628 2.8584 9.25813 2.54971C10.81 2.24103 12.4185 2.39946 13.8803 3.00496C15.3421 3.61046 16.5916 4.63584 17.4706 5.95143C18.3497 7.26703 18.8189 8.81375 18.8189 10.396C18.8189 12.5177 17.976 14.5526 16.4757 16.0529C14.9754 17.5531 12.9406 18.396 10.8189 18.396Z" fill="#181725"/>
<path d="M11.0364 4.39606C10.1081 4.39606 9.21788 4.76481 8.5615 5.42119C7.90513 6.07757 7.53638 6.96781 7.53638 7.89606C7.53638 8.16128 7.64173 8.41563 7.82927 8.60317C8.01681 8.79071 8.27116 8.89606 8.53638 8.89606C8.80159 8.89606 9.05595 8.79071 9.24348 8.60317C9.43102 8.41563 9.53638 8.16128 9.53638 7.89606C9.53638 7.59939 9.62435 7.30938 9.78917 7.06271C9.95399 6.81603 10.1883 6.62378 10.4624 6.51024C10.7364 6.39671 11.038 6.36701 11.329 6.42489C11.62 6.48276 11.8873 6.62562 12.097 6.8354C12.3068 7.04518 12.4497 7.31246 12.5076 7.60343C12.5654 7.8944 12.5357 8.196 12.4222 8.47009C12.3087 8.74418 12.1164 8.97845 11.8697 9.14327C11.6231 9.30809 11.333 9.39606 11.0364 9.39606C10.7712 9.39606 10.5168 9.50142 10.3293 9.68896C10.1417 9.87649 10.0364 10.1308 10.0364 10.3961V12.3961C10.0364 12.6613 10.1417 12.9156 10.3293 13.1032C10.5168 13.2907 10.7712 13.3961 11.0364 13.3961C11.3016 13.3961 11.5559 13.2907 11.7435 13.1032C11.931 12.9156 12.0364 12.6613 12.0364 12.3961V11.2361C12.8445 11.0001 13.54 10.4799 13.9949 9.7715C14.4497 9.06308 14.6331 8.21413 14.5113 7.38113C14.3895 6.54813 13.9708 5.78722 13.3322 5.23865C12.6936 4.69009 11.8782 4.39084 11.0364 4.39606Z" fill="#181725"/>
<path d="M11.0364 16.396C11.5887 16.396 12.0364 15.9483 12.0364 15.396C12.0364 14.8437 11.5887 14.396 11.0364 14.396C10.4841 14.396 10.0364 14.8437 10.0364 15.396C10.0364 15.9483 10.4841 16.396 11.0364 16.396Z" fill="#181725"/>
</svg>
