<svg width="20" height="16" viewBox="0 0 20 16" fill="none" xmlns="http://www.w3.org/2000/svg">
<path d="M2 2.43074H1.9V2.53074V13.2564V13.3564H2H18H18.1V13.2564V2.53074V2.43074H18H2ZM2 0.48562H18C18.5016 0.48562 18.9841 0.699258 19.3411 1.08211C19.6982 1.46519 19.9 1.98617 19.9 2.53074V13.2564C19.9 13.8009 19.6982 14.3219 19.3411 14.705C18.9841 15.0878 18.5016 15.3015 18 15.3015H2C1.49844 15.3015 1.01587 15.0878 0.658928 14.705C0.30176 14.3219 0.1 13.8009 0.1 13.2564V2.53074C0.1 1.98617 0.30176 1.46519 0.658928 1.08211C1.01587 0.699258 1.49844 0.48562 2 0.48562ZM11 4.77587H16C16.2363 4.77587 16.4646 4.8765 16.634 5.05821C16.8036 5.24015 16.9 5.48832 16.9 5.74843C16.9 6.00854 16.8036 6.25671 16.634 6.43865C16.4646 6.62035 16.2363 6.72099 16 6.72099H11C10.7637 6.72099 10.5354 6.62035 10.366 6.43865C10.1964 6.25671 10.1 6.00854 10.1 5.74843C10.1 5.48832 10.1964 5.24015 10.366 5.05821C10.5354 4.8765 10.7637 4.77587 11 4.77587ZM11 7.99355H16C16.2363 7.99355 16.4646 8.09419 16.634 8.27589C16.8036 8.45783 16.9 8.706 16.9 8.96611C16.9 9.22622 16.8036 9.4744 16.634 9.65634C16.4646 9.83804 16.2363 9.93868 16 9.93868H11C10.7637 9.93868 10.5354 9.83804 10.366 9.65634C10.1964 9.4744 10.1 9.22622 10.1 8.96611C10.1 8.706 10.1964 8.45783 10.366 8.27589C10.5354 8.09419 10.7637 7.99355 11 7.99355Z" fill="#181725" stroke="white" stroke-width="0.2"/>
<g clip-path="url(#clip0)">
<path d="M6.75023 5.58131V6.14401C6.75023 6.44842 6.61264 6.73439 6.37416 6.93733C6.1265 7.1495 5.80547 7.26942 5.46609 7.26942C5.12671 7.26942 4.7965 7.1495 4.55802 6.93733C4.31953 6.73439 4.18195 6.44842 4.18195 6.14401V5.58131C4.18195 5.28612 4.31953 5.00016 4.55802 4.78799C4.7965 4.57582 5.12671 4.4559 5.46609 4.4559C5.80547 4.4559 6.1265 4.57582 6.37416 4.78799C6.61264 5.00016 6.75023 5.28612 6.75023 5.58131Z" fill="#181725"/>
<path d="M7.71337 8.90212V9.36335C7.71337 9.58475 7.6033 9.80614 7.42903 9.96296C7.24558 10.1198 6.99792 10.212 6.75026 10.212H4.18198C3.92515 10.212 3.67749 10.1198 3.50322 9.96296C3.31977 9.80614 3.21887 9.58475 3.21887 9.36335V8.87445C3.21887 8.56081 3.32894 8.24717 3.53074 7.98888C3.73253 7.73059 4.01687 7.52765 4.34708 7.40773C4.39295 7.39851 4.42964 7.38928 4.4755 7.38928C4.52136 7.38928 4.55805 7.39851 4.60391 7.40773H6.24578C6.26412 7.40773 6.2733 7.40773 6.28247 7.41696C6.28247 7.40773 6.29164 7.40773 6.29164 7.40773C6.4384 7.39851 6.53013 7.40773 6.5393 7.40773C6.88785 7.52765 7.18137 7.73059 7.39234 7.99811C7.59413 8.26562 7.71337 8.57926 7.71337 8.90212Z" fill="#181725"/>
</g>
<defs>
<clipPath id="clip0">
<rect width="6" height="7.68429" fill="white" transform="translate(3 4.4559)"/>
</clipPath>
</defs>
</svg>
