<svg width="19" height="17" viewBox="0 0 19 17" fill="none" xmlns="http://www.w3.org/2000/svg">
<path d="M3.3226 17H15.6861C17.7934 17 19 15.8031 19 13.7214V3.28724C19 1.20561 17.7934 0 15.6861 0H3.3226C1.21537 0 0 1.19694 0 3.28724V13.7214C0 15.8031 1.21537 17 3.3226 17ZM2.69857 15.1898C2.12149 15.1898 1.83295 14.9469 1.83295 14.3311V4.96735C1.83295 4.35153 2.12149 4.10867 2.69857 4.10867H16.3102C16.8785 4.10867 17.167 4.35153 17.167 4.96735V14.3311C17.167 14.9469 16.8785 15.1898 16.3102 15.1898H2.69857ZM7.89554 7.71071H8.41141C8.74367 7.71071 8.85734 7.59796 8.85734 7.27704V6.76531C8.85734 6.44439 8.74367 6.33163 8.41141 6.33163H7.89554C7.57202 6.33163 7.44961 6.44439 7.44961 6.76531V7.27704C7.44961 7.59796 7.57202 7.71071 7.89554 7.71071ZM10.5886 7.71071H11.1045C11.4367 7.71071 11.5504 7.59796 11.5504 7.27704V6.76531C11.5504 6.44439 11.4367 6.33163 11.1045 6.33163H10.5886C10.2651 6.33163 10.1427 6.44439 10.1427 6.76531V7.27704C10.1427 7.59796 10.2651 7.71071 10.5886 7.71071ZM13.2816 7.71071H13.7975C14.1298 7.71071 14.2434 7.59796 14.2434 7.27704V6.76531C14.2434 6.44439 14.1298 6.33163 13.7975 6.33163H13.2816C12.9581 6.33163 12.8357 6.44439 12.8357 6.76531V7.27704C12.8357 7.59796 12.9581 7.71071 13.2816 7.71071ZM5.20249 10.3388H5.71836C6.04188 10.3388 6.16429 10.226 6.16429 9.9051V9.39337C6.16429 9.07245 6.04188 8.95969 5.71836 8.95969H5.20249C4.87897 8.95969 4.75656 9.07245 4.75656 9.39337V9.9051C4.75656 10.226 4.87897 10.3388 5.20249 10.3388ZM7.89554 10.3388H8.41141C8.74367 10.3388 8.85734 10.226 8.85734 9.9051V9.39337C8.85734 9.07245 8.74367 8.95969 8.41141 8.95969H7.89554C7.57202 8.95969 7.44961 9.07245 7.44961 9.39337V9.9051C7.44961 10.226 7.57202 10.3388 7.89554 10.3388ZM10.5886 10.3388H11.1045C11.4367 10.3388 11.5504 10.226 11.5504 9.9051V9.39337C11.5504 9.07245 11.4367 8.95969 11.1045 8.95969H10.5886C10.2651 8.95969 10.1427 9.07245 10.1427 9.39337V9.9051C10.1427 10.226 10.2651 10.3388 10.5886 10.3388ZM13.2816 10.3388H13.7975C14.1298 10.3388 14.2434 10.226 14.2434 9.9051V9.39337C14.2434 9.07245 14.1298 8.95969 13.7975 8.95969H13.2816C12.9581 8.95969 12.8357 9.07245 12.8357 9.39337V9.9051C12.8357 10.226 12.9581 10.3388 13.2816 10.3388ZM5.20249 12.9668H5.71836C6.04188 12.9668 6.16429 12.8541 6.16429 12.5332V12.0214C6.16429 11.7005 6.04188 11.5878 5.71836 11.5878H5.20249C4.87897 11.5878 4.75656 11.7005 4.75656 12.0214V12.5332C4.75656 12.8541 4.87897 12.9668 5.20249 12.9668ZM7.89554 12.9668H8.41141C8.74367 12.9668 8.85734 12.8541 8.85734 12.5332V12.0214C8.85734 11.7005 8.74367 11.5878 8.41141 11.5878H7.89554C7.57202 11.5878 7.44961 11.7005 7.44961 12.0214V12.5332C7.44961 12.8541 7.57202 12.9668 7.89554 12.9668ZM10.5886 12.9668H11.1045C11.4367 12.9668 11.5504 12.8541 11.5504 12.5332V12.0214C11.5504 11.7005 11.4367 11.5878 11.1045 11.5878H10.5886C10.2651 11.5878 10.1427 11.7005 10.1427 12.0214V12.5332C10.1427 12.8541 10.2651 12.9668 10.5886 12.9668Z" fill="black"/>
</svg>
