<svg width="15" height="15" viewBox="0 0 15 15" fill="none" xmlns="http://www.w3.org/2000/svg">
<path d="M14.0221 7.01106C14.0221 7.32105 13.9032 7.62071 13.681 7.83771C13.4639 8.05987 13.1641 8.18387 12.854 8.18387H8.18172V12.8545C8.18172 13.1645 8.05768 13.4641 7.83543 13.6811C7.61835 13.8981 7.32375 14.0221 7.01364 14.0221C6.70353 14.0221 6.40376 13.8981 6.18668 13.6811C5.96444 13.4641 5.84039 13.1645 5.84039 12.8545V8.18387H1.16808C0.857969 8.18387 0.558197 8.05987 0.34112 7.83771C0.124044 7.62071 0 7.32105 0 7.01106C0 6.70106 0.124044 6.40657 0.34112 6.1844C0.558197 5.96741 0.857969 5.84341 1.16808 5.84341H5.84039V1.17282C5.84039 0.86282 5.96444 0.563158 6.18668 0.346161C6.40376 0.123998 6.70353 0 7.01364 0C7.32375 0 7.61835 0.123998 7.83543 0.346161C8.05768 0.563158 8.18172 0.86282 8.18172 1.17282V5.84341H12.854C13.1641 5.84341 13.4639 5.96741 13.681 6.1844C13.9032 6.40657 14.0221 6.70106 14.0221 7.01106Z" fill="url(#paint0_linear)"/>
<defs>
<linearGradient id="paint0_linear" x1="4.69273" y1="7.85532" x2="8.21112" y2="8.12081" gradientUnits="userSpaceOnUse">
<stop stop-color="#2B3755"/>
<stop offset="1" stop-color="#1C243C"/>
</linearGradient>
</defs>
</svg>
