<svg width="24" height="23" viewBox="0 0 24 23" fill="none" xmlns="http://www.w3.org/2000/svg">
<path d="M17.7823 4.36917C18.0674 4.09536 18.0673 3.65144 17.7823 3.37767L15.6066 1.28782C15.3216 1.01401 14.8594 1.01405 14.5744 1.28782L1.24812 14.0882C0.963104 14.3619 0.963067 14.8059 1.24812 15.0797L3.42383 17.1695C3.70889 17.4433 4.17105 17.4433 4.45607 17.1695C5.07114 16.5787 6.07231 16.5787 6.68741 17.1695C7.3025 17.7603 7.3025 18.722 6.68741 19.3128C6.40238 19.5866 6.40235 20.0305 6.68741 20.3043L8.86311 22.3941C9.14817 22.668 9.61033 22.6679 9.89535 22.3941L23.2216 9.59379C23.5067 9.31998 23.5066 8.87606 23.2216 8.60229L21.0459 6.51245C20.7608 6.23864 20.2987 6.23867 20.0137 6.51245C19.3986 7.10325 18.3974 7.10327 17.7823 6.51245C17.1672 5.92162 17.1672 4.95999 17.7823 4.36917ZM16.7501 7.50398C17.7568 8.47096 19.2995 8.61582 20.4671 7.93947L21.6732 9.09804L13.3227 17.119L12.2071 16.0474C11.922 15.7736 11.4598 15.7736 11.1748 16.0474C10.8898 16.3212 10.8898 16.7651 11.1748 17.0389L12.2905 18.1105L9.37923 20.9069L8.17306 19.7483C8.87717 18.6268 8.72636 17.145 7.71964 16.178C6.71293 15.211 5.17019 15.0661 4.00265 15.7425L2.79648 14.5839L5.70772 11.7876L6.82339 12.8592C7.10844 13.133 7.5706 13.133 7.85562 12.8592C8.14065 12.5854 8.14065 12.1415 7.85562 11.8677L6.73996 10.7961L15.0905 2.7751L16.2966 3.93367C15.5925 5.05516 15.7433 6.53698 16.7501 7.50398Z" fill="#181725" stroke="#181725" stroke-width="0.3"/>
<path d="M8.45503 13.4352C8.17004 13.709 8.17008 14.1528 8.45503 14.4265L9.54258 15.4711C9.82757 15.7448 10.2896 15.7448 10.5746 15.4711C10.8595 15.1974 10.8595 14.7535 10.5746 14.4798L9.48704 13.4352C9.48704 13.4352 9.48703 13.4352 9.48703 13.4352C9.20209 13.1615 8.74001 13.1615 8.45503 13.4352Z" fill="#181725" stroke="#181725" stroke-width="0.3"/>
</svg>
