<svg width="9" height="14" viewBox="0 0 9 14" fill="none" xmlns="http://www.w3.org/2000/svg">
<path d="M0.617039 1.76842C0.429294 1.56842 0.324992 1.30526 0.335422 1.03158C0.335422 0.757896 0.439725 0.505264 0.6379 0.305264C0.825644 0.11579 1.0864 3.23592e-07 1.35759 3.473e-07C1.62877 3.71008e-07 1.88953 0.0947374 2.0877 0.284212L7.99122 6.24211C8.0851 6.33684 8.15811 6.45263 8.21026 6.57895C8.26241 6.70526 8.2937 6.84211 8.2937 6.97895C8.2937 7.11579 8.26241 7.25263 8.21026 7.38947C8.15811 7.51579 8.0851 7.63158 7.99122 7.72632L2.0877 13.6842C1.99383 13.7789 1.8791 13.8632 1.75393 13.9158C1.61834 13.9684 1.48275 14 1.34716 14C1.21156 14 1.06554 13.9789 0.940375 13.9263C0.815212 13.8737 0.70048 13.7895 0.596178 13.6947C0.502306 13.6 0.429294 13.4737 0.377142 13.3474C0.314561 13.2211 0.2937 13.0842 0.2937 12.9368C0.2937 12.8 0.324991 12.6632 0.377142 12.5368C0.429294 12.4105 0.512735 12.2947 0.617038 12.1895L5.78001 6.97895L4.79957 6L0.617039 1.76842Z" fill="#181725"/>
</svg>
